<svg width="46" height="33" viewBox="0 0 46 33" fill="none" xmlns="http://www.w3.org/2000/svg">
<path d="M42.7131 13.2004H11.1919L18.7517 5.65091C19.3707 5.03012 19.7184 4.18815 19.7184 3.31023C19.7184 2.4323 19.3707 1.59033 18.7517 0.969542C18.1328 0.348754 17.2933 0 16.418 0C15.5427 0 14.7033 0.348754 14.0843 0.969542L0.936807 14.1565C0.637567 14.47 0.402998 14.8397 0.246561 15.2444C-0.0821869 16.0471 -0.0821869 16.9473 0.246561 17.7499C0.402998 18.1546 0.637567 18.5243 0.936807 18.8379L14.0843 32.0248C14.3899 32.3338 14.7534 32.5791 15.154 32.7465C15.5545 32.9138 15.9841 33 16.418 33C16.8519 33 17.2816 32.9138 17.6821 32.7465C18.0826 32.5791 18.4462 32.3338 18.7517 32.0248C19.0598 31.7184 19.3043 31.3537 19.4712 30.952C19.6381 30.5503 19.724 30.1194 19.724 29.6841C19.724 29.2489 19.6381 28.818 19.4712 28.4163C19.3043 28.0146 19.0598 27.6499 18.7517 27.3435L11.1919 19.7939H42.7131C43.5849 19.7939 44.4209 19.4466 45.0373 18.8283C45.6537 18.2101 46 17.3715 46 16.4972C46 15.6228 45.6537 14.7843 45.0373 14.166C44.4209 13.5478 43.5849 13.2004 42.7131 13.2004Z" fill="white"/>
</svg>
