<svg width="97" height="97" viewBox="0 0 97 97" fill="none" xmlns="http://www.w3.org/2000/svg">
<path d="M21.9688 90.317C20.3299 90.317 18.6909 89.8922 17.1891 89.036C15.6974 88.2006 14.4571 86.9804 13.5976 85.5026C12.7381 84.0247 12.2908 82.3433 12.3023 80.6338V16.3629C12.3023 12.8408 14.1286 9.7 17.1891 7.96069C20.2462 6.21803 23.8787 6.25483 26.9058 8.05769L80.898 40.1948C83.8515 41.9542 85.6176 45.0582 85.6176 48.5C85.6176 51.9418 83.8515 55.0458 80.898 56.8052L26.9091 88.9423C25.4166 89.8379 23.7095 90.3129 21.9688 90.317ZM21.9822 13.3793C21.4604 13.3839 20.9482 13.5209 20.4938 13.7773C20.033 14.0325 19.6499 14.4075 19.3849 14.8627C19.1199 15.3179 18.983 15.8362 18.9886 16.3629V80.6371C18.9886 82.1991 20.0389 82.9651 20.4938 83.2227C20.949 83.4883 21.4677 83.6257 21.9947 83.6204C22.5218 83.6151 23.0376 83.4673 23.4874 83.1925L77.4762 51.0554C78.7874 50.2761 78.9312 49.0084 78.9312 48.5C78.9312 47.9916 78.7908 46.7239 77.4762 45.9445L23.484 13.8074C23.0326 13.5287 22.5128 13.3805 21.9822 13.3793Z" fill="white"/>
</svg>
